<mxfile host="app.diagrams.net" modified="2024-06-06T11:06:48.484Z" agent="Mozilla/5.0 (Macintosh; Intel Mac OS X 10_15_7) AppleWebKit/537.36 (KHTML, like Gecko) Chrome/116.0.0.0 Safari/537.36" etag="DPyQ7IUP6d_IXtUJdAth" version="24.4.13" type="device">
  <diagram name="Page-1" id="dv_VYlRYfUnMwkLv-vbT">
    <mxGraphModel dx="2060" dy="2576" grid="1" gridSize="10" guides="1" tooltips="1" connect="1" arrows="1" fold="1" page="1" pageScale="1" pageWidth="850" pageHeight="1100" math="0" shadow="0">
      <root>
        <mxCell id="0" />
        <mxCell id="1" parent="0" />
        <mxCell id="EzTBEtF5ClEyaQgrT7JG-1" value="" style="rounded=1;whiteSpace=wrap;html=1;" vertex="1" parent="1">
          <mxGeometry x="240" y="-60" width="490" height="290" as="geometry" />
        </mxCell>
        <mxCell id="EzTBEtF5ClEyaQgrT7JG-3" value="" style="rounded=1;whiteSpace=wrap;html=1;" vertex="1" parent="1">
          <mxGeometry x="-220" y="320" width="550" height="390" as="geometry" />
        </mxCell>
        <mxCell id="EzTBEtF5ClEyaQgrT7JG-7" value="&lt;b&gt;&lt;font style=&quot;font-size: 16px;&quot;&gt;WEBSOCKET&lt;/font&gt;&lt;/b&gt;" style="text;html=1;align=center;verticalAlign=middle;whiteSpace=wrap;rounded=0;" vertex="1" parent="1">
          <mxGeometry x="280" y="-50" width="60" height="30" as="geometry" />
        </mxCell>
        <mxCell id="EzTBEtF5ClEyaQgrT7JG-8" value="&lt;b&gt;&lt;font style=&quot;font-size: 16px;&quot;&gt;DATA CLIENT&lt;/font&gt;&lt;/b&gt;" style="text;html=1;align=center;verticalAlign=middle;whiteSpace=wrap;rounded=0;" vertex="1" parent="1">
          <mxGeometry x="-190" y="320" width="160" height="30" as="geometry" />
        </mxCell>
        <mxCell id="EzTBEtF5ClEyaQgrT7JG-9" value="" style="rounded=1;whiteSpace=wrap;html=1;" vertex="1" parent="1">
          <mxGeometry x="640" y="320" width="700" height="390" as="geometry" />
        </mxCell>
        <mxCell id="EzTBEtF5ClEyaQgrT7JG-11" value="" style="rounded=1;whiteSpace=wrap;html=1;" vertex="1" parent="1">
          <mxGeometry x="-90" y="890" width="1240" height="390" as="geometry" />
        </mxCell>
        <mxCell id="EzTBEtF5ClEyaQgrT7JG-13" value="" style="rounded=1;whiteSpace=wrap;html=1;" vertex="1" parent="1">
          <mxGeometry x="-240" y="1420" width="730" height="390" as="geometry" />
        </mxCell>
        <mxCell id="EzTBEtF5ClEyaQgrT7JG-14" value="&lt;b&gt;&lt;font style=&quot;font-size: 16px;&quot;&gt;APP CLIENT&lt;/font&gt;&lt;/b&gt;" style="text;html=1;align=center;verticalAlign=middle;whiteSpace=wrap;rounded=0;" vertex="1" parent="1">
          <mxGeometry x="-190" y="1430" width="100" height="30" as="geometry" />
        </mxCell>
        <mxCell id="EzTBEtF5ClEyaQgrT7JG-15" value="" style="rounded=1;whiteSpace=wrap;html=1;" vertex="1" parent="1">
          <mxGeometry x="690" y="1410" width="860" height="390" as="geometry" />
        </mxCell>
        <mxCell id="EzTBEtF5ClEyaQgrT7JG-16" value="&lt;b&gt;&lt;font style=&quot;font-size: 16px;&quot;&gt;APP SERVER&lt;/font&gt;&lt;/b&gt;" style="text;html=1;align=center;verticalAlign=middle;whiteSpace=wrap;rounded=0;" vertex="1" parent="1">
          <mxGeometry x="730" y="1430" width="110" height="30" as="geometry" />
        </mxCell>
        <mxCell id="EzTBEtF5ClEyaQgrT7JG-17" value="&lt;b&gt;&lt;font style=&quot;font-size: 16px;&quot;&gt;DATA SERVER&lt;/font&gt;&lt;/b&gt;" style="text;html=1;align=center;verticalAlign=middle;whiteSpace=wrap;rounded=0;" vertex="1" parent="1">
          <mxGeometry x="680" y="320" width="160" height="30" as="geometry" />
        </mxCell>
        <mxCell id="EzTBEtF5ClEyaQgrT7JG-18" value="&lt;b&gt;&lt;font style=&quot;font-size: 16px;&quot;&gt;DOMAIN&lt;/font&gt;&lt;/b&gt;" style="text;html=1;align=center;verticalAlign=middle;whiteSpace=wrap;rounded=0;" vertex="1" parent="1">
          <mxGeometry x="-45" y="900" width="160" height="30" as="geometry" />
        </mxCell>
        <mxCell id="EzTBEtF5ClEyaQgrT7JG-19" value="" style="rounded=1;whiteSpace=wrap;html=1;" vertex="1" parent="1">
          <mxGeometry x="680" y="360" width="270" height="160" as="geometry" />
        </mxCell>
        <mxCell id="EzTBEtF5ClEyaQgrT7JG-20" value="&lt;b&gt;&lt;font style=&quot;font-size: 16px;&quot;&gt;storage&lt;/font&gt;&lt;/b&gt;" style="text;html=1;align=center;verticalAlign=middle;whiteSpace=wrap;rounded=0;" vertex="1" parent="1">
          <mxGeometry x="670" y="360" width="110" height="30" as="geometry" />
        </mxCell>
        <mxCell id="EzTBEtF5ClEyaQgrT7JG-23" value="" style="rounded=1;whiteSpace=wrap;html=1;" vertex="1" parent="1">
          <mxGeometry x="1010" y="360" width="270" height="160" as="geometry" />
        </mxCell>
        <mxCell id="EzTBEtF5ClEyaQgrT7JG-24" value="&lt;b&gt;&lt;font style=&quot;font-size: 16px;&quot;&gt;network&lt;/font&gt;&lt;/b&gt;" style="text;html=1;align=center;verticalAlign=middle;whiteSpace=wrap;rounded=0;" vertex="1" parent="1">
          <mxGeometry x="1000" y="360" width="110" height="30" as="geometry" />
        </mxCell>
        <mxCell id="EzTBEtF5ClEyaQgrT7JG-25" value="" style="rounded=1;whiteSpace=wrap;html=1;" vertex="1" parent="1">
          <mxGeometry x="-190" y="360" width="270" height="160" as="geometry" />
        </mxCell>
        <mxCell id="EzTBEtF5ClEyaQgrT7JG-26" value="&lt;b&gt;&lt;font style=&quot;font-size: 16px;&quot;&gt;network&lt;/font&gt;&lt;/b&gt;" style="text;html=1;align=center;verticalAlign=middle;whiteSpace=wrap;rounded=0;" vertex="1" parent="1">
          <mxGeometry x="-200" y="360" width="110" height="30" as="geometry" />
        </mxCell>
        <mxCell id="EzTBEtF5ClEyaQgrT7JG-27" value="&lt;font style=&quot;font-size: 17px;&quot;&gt;ClientRepository - Interface&lt;/font&gt;" style="rounded=1;whiteSpace=wrap;html=1;" vertex="1" parent="1">
          <mxGeometry x="-45" y="940" width="485" height="100" as="geometry" />
        </mxCell>
        <mxCell id="EzTBEtF5ClEyaQgrT7JG-29" value="&lt;font style=&quot;font-size: 17px;&quot;&gt;ServerRepository - Interface&lt;/font&gt;" style="rounded=1;whiteSpace=wrap;html=1;" vertex="1" parent="1">
          <mxGeometry x="560" y="940" width="520" height="100" as="geometry" />
        </mxCell>
        <mxCell id="EzTBEtF5ClEyaQgrT7JG-30" value="&lt;font style=&quot;font-size: 17px;&quot;&gt;ServerRepositoryImpl - Implementation&lt;/font&gt;" style="rounded=1;whiteSpace=wrap;html=1;" vertex="1" parent="1">
          <mxGeometry x="690" y="610" width="420" height="80" as="geometry" />
        </mxCell>
        <mxCell id="EzTBEtF5ClEyaQgrT7JG-31" value="&lt;font style=&quot;font-size: 17px;&quot;&gt;ClientRepositoryImpl - Implementation&lt;/font&gt;" style="rounded=1;whiteSpace=wrap;html=1;" vertex="1" parent="1">
          <mxGeometry x="-190" y="590" width="485" height="100" as="geometry" />
        </mxCell>
        <mxCell id="EzTBEtF5ClEyaQgrT7JG-34" value="&lt;font style=&quot;font-size: 17px;&quot;&gt;ClientViewModel&lt;/font&gt;" style="rounded=1;whiteSpace=wrap;html=1;" vertex="1" parent="1">
          <mxGeometry x="-180" y="1540" width="270" height="160" as="geometry" />
        </mxCell>
        <mxCell id="EzTBEtF5ClEyaQgrT7JG-36" value="&lt;font style=&quot;font-size: 17px;&quot;&gt;ClientUI&lt;/font&gt;" style="rounded=1;whiteSpace=wrap;html=1;" vertex="1" parent="1">
          <mxGeometry x="140" y="1535" width="270" height="160" as="geometry" />
        </mxCell>
        <mxCell id="EzTBEtF5ClEyaQgrT7JG-37" value="&lt;font style=&quot;font-size: 17px;&quot;&gt;ServerViewModel&lt;/font&gt;" style="rounded=1;whiteSpace=wrap;html=1;" vertex="1" parent="1">
          <mxGeometry x="750" y="1525" width="270" height="160" as="geometry" />
        </mxCell>
        <mxCell id="EzTBEtF5ClEyaQgrT7JG-38" value="&lt;font style=&quot;font-size: 17px;&quot;&gt;ServerUI&lt;/font&gt;" style="rounded=1;whiteSpace=wrap;html=1;" vertex="1" parent="1">
          <mxGeometry x="1160" y="1525" width="270" height="160" as="geometry" />
        </mxCell>
        <mxCell id="EzTBEtF5ClEyaQgrT7JG-39" value="&lt;font style=&quot;font-size: 18px;&quot;&gt;StartClientUseCase&lt;/font&gt;" style="ellipse;whiteSpace=wrap;html=1;" vertex="1" parent="1">
          <mxGeometry x="-32.5" y="1180" width="170" height="80" as="geometry" />
        </mxCell>
        <mxCell id="EzTBEtF5ClEyaQgrT7JG-40" value="&lt;font style=&quot;font-size: 18px;&quot;&gt;PauseClientUseCase&lt;/font&gt;" style="ellipse;whiteSpace=wrap;html=1;" vertex="1" parent="1">
          <mxGeometry x="210" y="1180" width="190" height="80" as="geometry" />
        </mxCell>
        <mxCell id="EzTBEtF5ClEyaQgrT7JG-41" value="&lt;font style=&quot;font-size: 18px;&quot;&gt;StartServerUseCase&lt;/font&gt;" style="ellipse;whiteSpace=wrap;html=1;" vertex="1" parent="1">
          <mxGeometry x="640" y="1180" width="210" height="80" as="geometry" />
        </mxCell>
        <mxCell id="EzTBEtF5ClEyaQgrT7JG-42" value="&lt;font style=&quot;font-size: 18px;&quot;&gt;StopServerUseCase&lt;/font&gt;" style="ellipse;whiteSpace=wrap;html=1;" vertex="1" parent="1">
          <mxGeometry x="880" y="1180" width="210" height="80" as="geometry" />
        </mxCell>
      </root>
    </mxGraphModel>
  </diagram>
</mxfile>
